<?xml version="1.0" encoding="UTF-8"?>
<svg xmlns="http://www.w3.org/2000/svg" width="64" height="64" viewBox="0 0 64 64">
  <defs>
    <radialGradient id="g" cx="50%" cy="40%" r="60%">
      <stop offset="0%" stop-color="#ff6b6b"/>
      <stop offset="60%" stop-color="#d32f2f"/>
      <stop offset="100%" stop-color="#b71c1c"/>
    </radialGradient>
  </defs>
  <circle cx="32" cy="32" r="28" fill="url(#g)"/>
  <!-- Seam -->
  <path d="M10,26 C22,22 42,22 54,26" fill="none" stroke="#fce4ec" stroke-width="3" stroke-linecap="round"/>
  <path d="M10,38 C22,34 42,34 54,38" fill="none" stroke="#f8bbd0" stroke-width="3" stroke-linecap="round"/>
  <!-- Stitching -->
  <g stroke="#ffffff" stroke-width="1.2">
    <path d="M14,27 l4,-1"/>
    <path d="M20,25 l4,-1"/>
    <path d="M26,24 l4,-1"/>
    <path d="M32,23 l4,-1"/>
    <path d="M38,24 l4,-1"/>
    <path d="M44,25 l4,-1"/>
    <path d="M50,27 l4,-1"/>
    <path d="M14,39 l4,-1"/>
    <path d="M20,37 l4,-1"/>
    <path d="M26,36 l4,-1"/>
    <path d="M32,35 l4,-1"/>
    <path d="M38,36 l4,-1"/>
    <path d="M44,37 l4,-1"/>
    <path d="M50,39 l4,-1"/>
  </g>
</svg>

